<?xml version="1.0" encoding="UTF-8" standalone="no"?>
<!-- Created with Inkscape (http://www.inkscape.org/) -->

<svg
   width="210mm"
   height="297mm"
   viewBox="0 0 210 297"
   version="1.1"
   id="svg1020"
   xml:space="preserve"
   inkscape:export-filename="bitmap.png"
   inkscape:export-xdpi="96"
   inkscape:export-ydpi="96"
   xmlns:inkscape="http://www.inkscape.org/namespaces/inkscape"
   xmlns:sodipodi="http://sodipodi.sourceforge.net/DTD/sodipodi-0.dtd"
   xmlns="http://www.w3.org/2000/svg"
   xmlns:svg="http://www.w3.org/2000/svg"><sodipodi:namedview
     id="namedview1022"
     pagecolor="#ffffff"
     bordercolor="#000000"
     borderopacity="0.25"
     inkscape:showpageshadow="2"
     inkscape:pageopacity="0.0"
     inkscape:pagecheckerboard="0"
     inkscape:deskcolor="#d1d1d1"
     inkscape:document-units="mm"
     showgrid="false" /><defs
     id="defs1017" /><g
     inkscape:groupmode="layer"
     id="layer4"
     inkscape:label="Projeto"><path
       style="opacity:1;fill:#ff8314;fill-opacity:1;stroke:none;stroke-width:0.600001"
       d="m 85.042728,73.400549 c -1.38079,4.547543 -2.986233,10.660253 -1.096494,16.995647 -1.925411,2.147001 -2.326848,4.07659 -3.128229,6.062962 3.678225,-4.97645 9.754531,-13.276433 16.931145,-3.644228 7.78949,-11.122278 17.06015,3.41848 17.06015,3.41848 0,0 -1.33185,-3.961065 -3.12823,-6.224212 1.13082,-5.172598 1.00441,-10.576791 -1.12875,-16.350649 l -10.19094,8.836446 -5.385712,0.0645 z"
       id="path1517"
       sodipodi:nodetypes="cccccccccc" /><path
       style="opacity:1;fill:#000000;fill-opacity:1;stroke:#000000;stroke-width:0.600001"
       d="m 89.6867,91.815186 c 2.826608,0.68018 4.887125,1.856066 4.80522,4.418224 -0.706416,-0.158169 -1.403625,-0.307132 -2.192986,-0.548246 -2.926881,-1.126807 -2.166965,-2.546217 -2.612234,-3.869978 z"
       id="path1519"
       sodipodi:nodetypes="cccc" /><path
       style="opacity:1;fill:#000000;fill-opacity:1;stroke:#000000;stroke-width:0.600001"
       d="m 96.088286,100.78063 3.402354,-0.0806 c -0.188017,0.76324 -0.449899,1.52649 -0.999744,2.28973 l -1.338366,-0.0645 c -0.212235,-0.15125 -0.632575,-1.09574 -1.064244,-2.14463 z"
       id="path1523"
       sodipodi:nodetypes="ccccc" /><path
       style="opacity:1;fill:#ff8314;fill-opacity:1;stroke:none;stroke-width:0.600001"
       d="m 84.055743,97.464527 9.532093,7.160473 -3.511822,6.38514 0.775337,1.86993 5.564188,2.2804 -0.456081,4.19595 -7.069257,-0.13683 c -0.913035,-7.72108 0.593884,-14.99786 -4.834458,-21.755063 z"
       id="path1525"
       sodipodi:nodetypes="cccccccc" /><path
       style="opacity:1;fill:#ff8314;fill-opacity:1;stroke:#ff8314;stroke-width:0.600001;stroke-opacity:1"
       d="m 111.23817,98.057432 c 1.77314,4.430718 5.40319,8.065618 10.58109,11.037158 6.06559,3.94091 9.20112,8.20739 10.90033,12.63345 1.07938,4.07432 0.75886,7.44868 -0.5929,10.30743 -1.40156,4.22959 -4.42763,6.0224 -8.25507,6.61318 -15.7348,0.42263 -31.469594,0.29167 -47.204391,-0.50169 1.400693,-7.41554 8.007767,-22.61248 28.733111,-15.68919 l 13.36317,5.24493 c 2.21397,1.07148 4.50095,1.85096 6.88683,2.2348 l 1.77871,-0.22804 -2.73648,-0.41048 c -5.07695,-2.49476 -10.10012,-5.09707 -15.50676,-6.93243 L 108,117.94257 l -1.04899,3.83108 -6.61317,-2.11198 c -0.545293,-8.17802 0.23994,-17.17241 10.90033,-21.604238 z"
       id="path1527"
       sodipodi:nodetypes="cccccccccccccccc" /><path
       style="opacity:1;fill:#000000;fill-opacity:1;stroke:#000000;stroke-width:0.600001;stroke-opacity:1"
       d="m 100.97635,96.392734 c -0.20946,-3.496643 2.41101,-3.749212 4.58361,-4.515202 0.0917,1.353674 -0.18082,2.642301 -1.77871,3.694258 -0.88449,0.576527 -1.86651,0.567806 -2.8049,0.820944 z"
       id="path1529"
       sodipodi:nodetypes="cccc" /><path
       style="opacity:1;fill:#ffffff;fill-opacity:1;stroke:none;stroke-width:0.600001"
       d="m 79.076515,136.28766 29.863315,0.67725 c -3.11748,-1.36496 -6.23496,-2.39737 -9.35244,-3.16048 2.23599,-0.7035 4.47197,-1.6416 6.70796,-3.03148 -2.82145,-1.61685 -6.43433,-2.37031 -10.19094,-2.96698 l 6.44996,-3.90223 c -11.652355,-1.24371 -20.731891,1.12443 -23.477855,12.38392 z"
       id="path1531"
       sodipodi:nodetypes="ccccccc" /></g></svg>
